{"title":"Ted 2 2015 HC HDRip x264-MenaceIISociety","uid":12108887,"size":915065767,"categoryP":"video","categoryS":"movies","magnet":"?xt=urn:btih:54ea4a19e42f99761e73a525e21b10bfb9b9a014&amp;dn=Ted+2+2015+HC+HDRip+x264-MenaceIISociety&amp;tr=udp%3A%2F%2Ftracker.openbittorrent.com%3A80&amp;tr=udp%3A%2F%2Fopen.demonii.com%3A1337&amp;tr=udp%3A%2F%2Ftracker.coppersurfer.tk%3A6969&amp;tr=udp%3A%2F%2Fexodus.desync.com%3A6969","seeders":4,"leechers":3,"uploader":"makintos13","files":3,"time":1436510933,"description":" &lt;a href=&quot;http://imgmak.com/YY&quot; rel=&quot;nofollow&quot; target=&quot;_NEW&quot;&gt;http://imgmak.com/YY&lt;/a&gt; &lt;a href=&quot;\nhttp://imgmak.com/Y0&quot; rel=&quot;nofollow&quot; target=&quot;_NEW&quot;&gt;\nhttp://imgmak.com/Y0&lt;/a&gt; &lt;a href=&quot;\nhttp://imgmak.com/YO&quot; rel=&quot;nofollow&quot; target=&quot;_NEW&quot;&gt;\nhttp://imgmak.com/YO&lt;/a&gt; &lt;a href=&quot;\nhttp://imgmak.com/YP&quot; rel=&quot;nofollow&quot; target=&quot;_NEW&quot;&gt;\nhttp://imgmak.com/YP&lt;/a&gt;\n\nGeneral\nComplete name: Ted.2.2015.HC.HDRip.x264-MenaceIISociety.mp4\nFormat: MPEG-4\nFormat profile: Base Media\nCodec ID: isom\nFile size: 860 MiB\nDuration: 1h 54mn\nOverall bit rate mode: Variable\nOverall bit rate: 1 047 Kbps\nEncoded date: UTC 2015-07-10 03:36:17\nTagged date: UTC 2015-07-10 03:36:17\n\nVideo\nID: 1\nFormat: AVC\nFormat/Info: Advanced Video Codec\nFormat profile: &lt;a class=&quot;__cf_email__&quot; href=&quot;/cdn-cgi/l/email-protection&quot; data-cfemail=&quot;5b13323c331b176f756a&quot;&gt;[email&amp;#160;protected]&lt;/a&gt;&lt;script data-cfhash='f9e31' type=&quot;text/javascript&quot;&gt;\n/* &lt;![CDATA[ */!function(){try{var t=&quot;currentScript&quot;in document?document.currentScript:function(){for(var t=document.getElementsByTagName(&quot;script&quot;),e=t.length;e--;)if(t[e].getAttribute(&quot;data-cfhash&quot;))return t[e]}();if(t&amp;&amp;t.previousSibling){var e,r,n,i,c=t.previousSibling,a=c.getAttribute(&quot;data-cfemail&quot;);if(a){for(e=&quot;&quot;,r=parseInt(a.substr(0,2),16),n=2;a.length-n;n+=2)i=parseInt(a.substr(n,2),16)^r,e+=String.fromCharCode(i);e=document.createTextNode(e),c.parentNode.replaceChild(e,c)}t.parentNode.removeChild(t);}}catch(u){}}()/* ]]&gt; */&lt;/script&gt;\nFormat settings, CABAC: Yes\nFormat settings, ReFrames: 3 frames\nCodec ID: avc1\nCodec ID/Info: Advanced Video Coding\nDuration: 1h 54mn\nBit rate mode: Variable\nBit rate: 971 Kbps\nMaximum bit rate: 40.0 Mbps\nWidth: 720 pixels\nHeight: 256 pixels\nDisplay aspect ratio: 2.813\nFrame rate mode: Constant\nFrame rate: 25.000 fps\nColor space: YUV\nChroma subsampling: 4:2:0\nBit depth: 8 bits\nScan type: Progressive\nBits/(Pixel*Frame): 0.211\nStream size: 798 MiB (93%)\nWriting library: x264 core 146 r2538 121396c\n\nAudio\nID: 2\nFormat: AAC\nFormat/Info: Advanced Audio Codec\nFormat profile: LC\nCodec ID: 40\nDuration: 1h 54mn\nBit rate mode: Variable\nBit rate: 72.0 Kbps\nMaximum bit rate: 88.1 Kbps\nChannel(s): 2 channels\nChannel positions: Front: L R\nSampling rate: 48.0 KHz\nCompression mode: Lossy\nStream size: 59.1 MiB (7%)\nLanguage: English\nEncoded date: UTC 2015-07-10 02:47:55\nTagged date: UTC 2015-07-10 03:42:06","torrent":{"xt":"urn:btih:54ea4a19e42f99761e73a525e21b10bfb9b9a014","amp;dn":"Ted+2+2015+HC+HDRip+x264-MenaceIISociety","amp;tr":["udp%3A%2F%2Ftracker.openbittorrent.com%3A80","udp%3A%2F%2Fopen.demonii.com%3A1337","udp%3A%2F%2Ftracker.coppersurfer.tk%3A6969","udp%3A%2F%2Fexodus.desync.com%3A6969"],"infoHash":"54ea4a19e42f99761e73a525e21b10bfb9b9a014","infoHashBuffer":{"type":"Buffer","data":[84,234,74,25,228,47,153,118,30,115,165,37,226,27,16,191,185,185,160,20]},"announce":[],"urlList":[]}}